# xmcd
#
# Track frame offsets:
# 150
# 32259
# 42507
# 45209
# 48932
# 52610
# 57426
# 80295
#
# Disc length: 1321 seconds
#
#
# Revision: 0
# Processed by: cddbd v1.5.2PL0 Copyright (c) Steve Scherf et al.
# Submitted via: FreeRIP 2.951 
#
DISCID=51052708
DTITLE=Old Man Gloom - Christmas Eve I and II and 6
DYEAR=2003
DGENRE=Black Metal
TTITLE0=Christmas Eve Part I
TTITLE1=A.L.F. Makes Accident, or the Slow Advance of Now Liberated, but Virally Contagious Chimps
TTITLE2=Skull of Geronimo (Feat. the vocal stylings of James Randall)
TTITLE3=Masami's Music Box 1
TTITLE4=Branch Breaker (Live in NYC)
TTITLE5=Masami's Music Box 2
TTITLE6=Christmas Eve Part II
TTITLE7=Gratuitous Bonus Track Made by Sensible Musicians Doing Questionable Things (Feat. SB, AM, and JRC)
EXTD=3" CD
EXTT0=
EXTT1=
EXTT2=
EXTT3=
EXTT4=
EXTT5=
EXTT6=
EXTT7=
PLAYORDER=
